<svg xmlns="http://www.w3.org/2000/svg" xmlns:xlink="http://www.w3.org/1999/xlink" data-name="Layer 1" height="479.3px" preserveAspectRatio="xMidYMid meet" version="1.0" viewBox="-24.8 22.7 526.7 479.3" width="526.7px" zoomAndPan="magnify" transform="rotate(0) scale(1, 1)"><g id="change1_1"><path d="M454.35,250c0,141-128.46,252-274.74,222.36C100.12,456.23,20.94,377,4.83,297.54-24.82,151.27,86.17,22.82,227.17,22.82A226.37,226.37,0,0,1,381.6,83.38a10.71,10.71,0,0,1,.28,15.42l-18.77,18.77a10.7,10.7,0,0,1-14.81.3,178.57,178.57,0,0,0-120-47.12c-99.7-.64-181.38,81.31-180.42,181,1,98.21,80.88,177.54,179.33,177.49,93.92,0,172.52-73.31,178.76-167A180.77,180.77,0,0,0,402.18,211a10.69,10.69,0,0,1,2.88-9.85l21.72-21.71a10.69,10.69,0,0,1,17.79,4.39A227.11,227.11,0,0,1,454.35,250Zm-230-5.71-73.9-73.9a20,20,0,0,0-28.21,0l-19.51,19.51a20,20,0,0,0,0,28.21l88,88,33.61,33.61a19.94,19.94,0,0,0,28.2,0l33.61-33.61,208-208a20,20,0,0,0,0-28.21L474.65,50.41a20,20,0,0,0-28.21,0L252.57,244.28A19.94,19.94,0,0,1,224.37,244.28Z" fill="#ffffff"/></g></svg>